<mxfile host="app.diagrams.net" agent="Mozilla/5.0 (Windows NT 10.0; Win64; x64) AppleWebKit/537.36 (KHTML, like Gecko) Chrome/128.0.0.0 Safari/537.36" version="24.7.14">
  <diagram name="Страница — 1" id="tldEsEt9-eIVQ6uxBQ0D">
    <mxGraphModel dx="1434" dy="772" grid="1" gridSize="10" guides="1" tooltips="1" connect="1" arrows="1" fold="1" page="1" pageScale="1" pageWidth="827" pageHeight="1169" math="0" shadow="0">
      <root>
        <mxCell id="0" />
        <mxCell id="1" parent="0" />
        <mxCell id="sZup-InYW8D0DK447fED-17" style="edgeStyle=orthogonalEdgeStyle;rounded=0;orthogonalLoop=1;jettySize=auto;html=1;exitX=0.5;exitY=1;exitDx=0;exitDy=0;exitPerimeter=0;entryX=0.5;entryY=0;entryDx=0;entryDy=0;" parent="1" source="sZup-InYW8D0DK447fED-3" target="sZup-InYW8D0DK447fED-4" edge="1">
          <mxGeometry relative="1" as="geometry">
            <mxPoint x="70" y="170" as="targetPoint" />
          </mxGeometry>
        </mxCell>
        <mxCell id="sZup-InYW8D0DK447fED-20" style="edgeStyle=orthogonalEdgeStyle;rounded=0;orthogonalLoop=1;jettySize=auto;html=1;exitX=0;exitY=1;exitDx=0;exitDy=-15;exitPerimeter=0;entryX=0.5;entryY=0;entryDx=0;entryDy=0;" parent="1" source="sZup-InYW8D0DK447fED-3" target="sZup-InYW8D0DK447fED-6" edge="1">
          <mxGeometry relative="1" as="geometry" />
        </mxCell>
        <mxCell id="sZup-InYW8D0DK447fED-21" style="edgeStyle=orthogonalEdgeStyle;rounded=0;orthogonalLoop=1;jettySize=auto;html=1;exitX=0.145;exitY=1;exitDx=0;exitDy=-4.35;exitPerimeter=0;" parent="1" source="sZup-InYW8D0DK447fED-3" target="sZup-InYW8D0DK447fED-9" edge="1">
          <mxGeometry relative="1" as="geometry">
            <mxPoint x="230" y="180" as="targetPoint" />
          </mxGeometry>
        </mxCell>
        <mxCell id="sZup-InYW8D0DK447fED-23" style="edgeStyle=orthogonalEdgeStyle;rounded=0;orthogonalLoop=1;jettySize=auto;html=1;exitX=0.855;exitY=1;exitDx=0;exitDy=-4.35;exitPerimeter=0;entryX=0.5;entryY=0;entryDx=0;entryDy=0;" parent="1" source="sZup-InYW8D0DK447fED-3" target="sZup-InYW8D0DK447fED-10" edge="1">
          <mxGeometry relative="1" as="geometry" />
        </mxCell>
        <mxCell id="sZup-InYW8D0DK447fED-24" style="edgeStyle=orthogonalEdgeStyle;rounded=0;orthogonalLoop=1;jettySize=auto;html=1;exitX=1;exitY=1;exitDx=0;exitDy=-15;exitPerimeter=0;entryX=0.75;entryY=0;entryDx=0;entryDy=0;" parent="1" source="sZup-InYW8D0DK447fED-3" target="sZup-InYW8D0DK447fED-12" edge="1">
          <mxGeometry relative="1" as="geometry" />
        </mxCell>
        <mxCell id="sZup-InYW8D0DK447fED-25" style="edgeStyle=orthogonalEdgeStyle;rounded=0;orthogonalLoop=1;jettySize=auto;html=1;exitX=1;exitY=0.5;exitDx=0;exitDy=0;exitPerimeter=0;entryX=0.5;entryY=0;entryDx=0;entryDy=0;" parent="1" source="sZup-InYW8D0DK447fED-3" target="sZup-InYW8D0DK447fED-14" edge="1">
          <mxGeometry relative="1" as="geometry" />
        </mxCell>
        <mxCell id="sZup-InYW8D0DK447fED-3" value="" style="shape=cylinder3;whiteSpace=wrap;html=1;boundedLbl=1;backgroundOutline=1;size=15;" parent="1" vertex="1">
          <mxGeometry x="294" y="30" width="120" height="120" as="geometry" />
        </mxCell>
        <mxCell id="sZup-InYW8D0DK447fED-2" value="pc_comp" style="text;strokeColor=none;fillColor=none;html=1;fontSize=24;fontStyle=1;verticalAlign=middle;align=center;" parent="1" vertex="1">
          <mxGeometry x="304" y="80" width="100" height="40" as="geometry" />
        </mxCell>
        <mxCell id="sZup-InYW8D0DK447fED-4" value="" style="rounded=0;whiteSpace=wrap;html=1;" parent="1" vertex="1">
          <mxGeometry x="70" y="190" width="70" height="170" as="geometry" />
        </mxCell>
        <mxCell id="sZup-InYW8D0DK447fED-5" value="&lt;font style=&quot;font-size: 21px;&quot;&gt;id&lt;/font&gt;" style="text;strokeColor=none;fillColor=none;html=1;fontSize=24;fontStyle=1;verticalAlign=middle;align=center;" parent="1" vertex="1">
          <mxGeometry x="70" y="200" width="70" height="30" as="geometry" />
        </mxCell>
        <mxCell id="sZup-InYW8D0DK447fED-6" value="" style="rounded=0;whiteSpace=wrap;html=1;" parent="1" vertex="1">
          <mxGeometry x="160" y="190" width="70" height="170" as="geometry" />
        </mxCell>
        <mxCell id="sZup-InYW8D0DK447fED-7" value="&lt;font style=&quot;font-size: 21px;&quot;&gt;name&lt;/font&gt;" style="text;strokeColor=none;fillColor=none;html=1;fontSize=24;fontStyle=1;verticalAlign=middle;align=center;" parent="1" vertex="1">
          <mxGeometry x="160" y="200" width="70" height="30" as="geometry" />
        </mxCell>
        <mxCell id="sZup-InYW8D0DK447fED-8" value="" style="rounded=0;whiteSpace=wrap;html=1;" parent="1" vertex="1">
          <mxGeometry x="250" y="190" width="70" height="170" as="geometry" />
        </mxCell>
        <mxCell id="sZup-InYW8D0DK447fED-9" value="&lt;span style=&quot;font-size: 21px;&quot;&gt;discr&lt;/span&gt;&lt;div&gt;&lt;span style=&quot;font-size: 21px;&quot;&gt;iption&lt;/span&gt;&lt;/div&gt;" style="text;strokeColor=none;fillColor=none;html=1;fontSize=24;fontStyle=1;verticalAlign=middle;align=center;" parent="1" vertex="1">
          <mxGeometry x="250" y="200" width="70" height="30" as="geometry" />
        </mxCell>
        <mxCell id="sZup-InYW8D0DK447fED-10" value="" style="rounded=0;whiteSpace=wrap;html=1;" parent="1" vertex="1">
          <mxGeometry x="344" y="190" width="70" height="170" as="geometry" />
        </mxCell>
        <mxCell id="sZup-InYW8D0DK447fED-11" value="&lt;font style=&quot;font-size: 21px;&quot;&gt;price&lt;/font&gt;" style="text;strokeColor=none;fillColor=none;html=1;fontSize=24;fontStyle=1;verticalAlign=middle;align=center;" parent="1" vertex="1">
          <mxGeometry x="344" y="200" width="70" height="30" as="geometry" />
        </mxCell>
        <mxCell id="sZup-InYW8D0DK447fED-12" value="" style="rounded=0;whiteSpace=wrap;html=1;" parent="1" vertex="1">
          <mxGeometry x="440" y="190" width="70" height="170" as="geometry" />
        </mxCell>
        <mxCell id="sZup-InYW8D0DK447fED-13" value="&lt;font style=&quot;font-size: 21px;&quot;&gt;proper&lt;/font&gt;&lt;div&gt;&lt;font style=&quot;font-size: 21px;&quot;&gt;_&lt;/font&gt;&lt;span style=&quot;background-color: initial; font-size: 21px;&quot;&gt;ddr&lt;/span&gt;&lt;/div&gt;" style="text;strokeColor=none;fillColor=none;html=1;fontSize=24;fontStyle=1;verticalAlign=middle;align=center;" parent="1" vertex="1">
          <mxGeometry x="440" y="200" width="70" height="30" as="geometry" />
        </mxCell>
        <mxCell id="sZup-InYW8D0DK447fED-14" value="" style="rounded=0;whiteSpace=wrap;html=1;" parent="1" vertex="1">
          <mxGeometry x="550" y="190" width="90" height="170" as="geometry" />
        </mxCell>
        <mxCell id="sZup-InYW8D0DK447fED-15" value="&lt;font style=&quot;font-size: 21px;&quot;&gt;proper_&lt;/font&gt;&lt;div&gt;&lt;font style=&quot;font-size: 21px;&quot;&gt;memory&lt;/font&gt;&lt;/div&gt;" style="text;strokeColor=none;fillColor=none;html=1;fontSize=24;fontStyle=1;verticalAlign=middle;align=center;" parent="1" vertex="1">
          <mxGeometry x="560" y="200" width="70" height="30" as="geometry" />
        </mxCell>
        <mxCell id="sZup-InYW8D0DK447fED-26" style="edgeStyle=orthogonalEdgeStyle;rounded=0;orthogonalLoop=1;jettySize=auto;html=1;exitX=0.5;exitY=1;exitDx=0;exitDy=0;exitPerimeter=0;entryX=0.5;entryY=0;entryDx=0;entryDy=0;" parent="1" source="sZup-InYW8D0DK447fED-32" target="sZup-InYW8D0DK447fED-34" edge="1">
          <mxGeometry relative="1" as="geometry">
            <mxPoint x="94" y="590" as="targetPoint" />
          </mxGeometry>
        </mxCell>
        <mxCell id="sZup-InYW8D0DK447fED-27" style="edgeStyle=orthogonalEdgeStyle;rounded=0;orthogonalLoop=1;jettySize=auto;html=1;exitX=0;exitY=1;exitDx=0;exitDy=-15;exitPerimeter=0;entryX=0.5;entryY=0;entryDx=0;entryDy=0;" parent="1" source="sZup-InYW8D0DK447fED-32" target="sZup-InYW8D0DK447fED-36" edge="1">
          <mxGeometry relative="1" as="geometry" />
        </mxCell>
        <mxCell id="sZup-InYW8D0DK447fED-46" style="edgeStyle=orthogonalEdgeStyle;rounded=0;orthogonalLoop=1;jettySize=auto;html=1;exitX=0.855;exitY=1;exitDx=0;exitDy=-4.35;exitPerimeter=0;entryX=0.5;entryY=0;entryDx=0;entryDy=0;" parent="1" source="sZup-InYW8D0DK447fED-32" target="sZup-InYW8D0DK447fED-44" edge="1">
          <mxGeometry relative="1" as="geometry" />
        </mxCell>
        <mxCell id="sZup-InYW8D0DK447fED-32" value="" style="shape=cylinder3;whiteSpace=wrap;html=1;boundedLbl=1;backgroundOutline=1;size=15;" parent="1" vertex="1">
          <mxGeometry x="318" y="450" width="120" height="120" as="geometry" />
        </mxCell>
        <mxCell id="sZup-InYW8D0DK447fED-33" value="pc_comp_&lt;div&gt;prop&lt;/div&gt;" style="text;strokeColor=none;fillColor=none;html=1;fontSize=24;fontStyle=1;verticalAlign=middle;align=center;" parent="1" vertex="1">
          <mxGeometry x="328" y="500" width="100" height="40" as="geometry" />
        </mxCell>
        <mxCell id="sZup-InYW8D0DK447fED-34" value="" style="rounded=0;whiteSpace=wrap;html=1;" parent="1" vertex="1">
          <mxGeometry x="94" y="610" width="70" height="170" as="geometry" />
        </mxCell>
        <mxCell id="sZup-InYW8D0DK447fED-35" value="&lt;font style=&quot;font-size: 21px;&quot;&gt;id&lt;/font&gt;" style="text;strokeColor=none;fillColor=none;html=1;fontSize=24;fontStyle=1;verticalAlign=middle;align=center;" parent="1" vertex="1">
          <mxGeometry x="94" y="620" width="70" height="30" as="geometry" />
        </mxCell>
        <mxCell id="sZup-InYW8D0DK447fED-36" value="" style="rounded=0;whiteSpace=wrap;html=1;" parent="1" vertex="1">
          <mxGeometry x="304" y="630" width="70" height="170" as="geometry" />
        </mxCell>
        <mxCell id="sZup-InYW8D0DK447fED-37" value="&lt;font style=&quot;font-size: 21px;&quot;&gt;prop_&lt;/font&gt;&lt;div&gt;&lt;font style=&quot;font-size: 21px;&quot;&gt;ddr&lt;/font&gt;&lt;/div&gt;" style="text;strokeColor=none;fillColor=none;html=1;fontSize=24;fontStyle=1;verticalAlign=middle;align=center;" parent="1" vertex="1">
          <mxGeometry x="304" y="640" width="70" height="30" as="geometry" />
        </mxCell>
        <mxCell id="sZup-InYW8D0DK447fED-44" value="" style="rounded=0;whiteSpace=wrap;html=1;" parent="1" vertex="1">
          <mxGeometry x="460" y="620" width="90" height="170" as="geometry" />
        </mxCell>
        <mxCell id="sZup-InYW8D0DK447fED-45" value="&lt;font style=&quot;font-size: 21px;&quot;&gt;proper_&lt;/font&gt;&lt;div&gt;&lt;font style=&quot;font-size: 21px;&quot;&gt;memory&lt;/font&gt;&lt;/div&gt;" style="text;strokeColor=none;fillColor=none;html=1;fontSize=24;fontStyle=1;verticalAlign=middle;align=center;" parent="1" vertex="1">
          <mxGeometry x="470" y="630" width="70" height="30" as="geometry" />
        </mxCell>
      </root>
    </mxGraphModel>
  </diagram>
</mxfile>
